PathFileType	4	(X/Y/Z)	C:/Users/beibeiliu/ov580/test_trc\sequence.12_training_dense_left.trc
DataRate	CameraRate	NumFrames	NumMarkers	Units	OrigDataRate	OrigDataStartFrame	OrigNumFrames
120	120	14	19	mm	120	1	89
Frame#	Time	ThumbCMC			ThumbMCP			ThumbIP			ThumbTip			IndexMCP			IndexPIP			IndexTip			MiddleMCP			MiddlePIP			MiddleTip			RingMCP			RingPIP			RingTip			PinkyMCP			PinkyPIP			PinkyTip			BackHand1			BackHand2			BackHand3	
		X0	Y0	Z0	X1	Y1	Z1	X2	Y2	Z2	X3	Y3	Z3	X4	Y4	Z4	X5	Y5	Z5	X6	Y6	Z6	X7	Y7	Z7	X8	Y8	Z8	X9	Y9	Z9	X10	Y10	Z10	X11	Y11	Z11	X12	Y12	Z12	X13	Y13	Z13	X14	Y14	Z14	X15	Y15	Z15	X16	Y16	Z16	X17	Y17	Z17	X18	Y18	Z18	
0	0	-141.958	46.7407	57.86	-128.191	34.3604	36.6453	-117.969	28.882	14.6655	-115.78	20.8392	-9.15122	-149.554	50.7457	-10.8385	-143.405	40.9644	-32.7135	-138.472	20.6574	-54.4072	-169.944	49.6931	-18.5837	-170.305	41.1707	-43.7205	-170.811	23.4088	-65.1913	-188.267	45.6575	-14.5581	-190.048	40.1914	-33.4828	-190.797	29.5248	-53.5834	-210.801	38.8118	-0.318893	-213.739	34.1102	-14.9944	-215.016	29.6021	-36.4706	-190.048	59.9382	28.5656	-192.429	64.1492	59.1873	-166.16	66.4312	43.3485	
1	0.00833333	-144.896	47.7408	54.6898	-128.622	37.0112	34.6027	-124.632	31.0448	13.6126	-117.804	22.4279	-8.96345	-151.636	51.7506	-13.2345	-146.308	40.4103	-37.4455	-141.834	20.7421	-55.3507	-171.082	50.371	-21.8055	-171.295	43.4289	-42.18	-172.68	24.397	-65.9145	-194.522	46.7928	-12.9579	-190.816	40.8201	-34.358	-191.73	28.9482	-58.9776	-209.284	39.873	2.75261	-216.68	33.4134	-20.1771	-219.703	31.0262	-35.4059	-194.236	59.4588	31.6506	-192.923	65.8839	55.8926	-166.867	66.5932	40.9571	
2	0.0166667	-147.006	48.0271	55.6976	-132.181	37.8037	36.4369	-122.793	31.717	9.74093	-119.945	24.812	-5.17995	-147.986	51.8396	-16.8669	-148.085	42.0451	-35.916	-139.27	25.2084	-53.0755	-175.425	51.9016	-19.359	-173.112	43.39	-43.7509	-171.102	27.3179	-65.585	-191.295	48.4432	-11.7634	-192.827	40.0103	-39.2198	-194.122	29.6039	-58.5698	-212.849	41.0116	0.848144	-217.977	34.1729	-18.7255	-218.877	29.586	-36.295	-196.955	60.5067	30.388	-194.185	64.6229	55.1351	-170.751	67.005	42.9954	
3	0.025	-144.765	47.2729	50.5096	-134.065	36.2983	32.5349	-125.385	30.5201	10.9892	-119.373	23.3371	-4.88159	-152.217	49.9625	-17.1375	-144.929	39.3824	-39.3564	-146.021	23.8769	-53.2967	-174.528	50.2297	-18.5813	-174.76	40.4198	-46.2341	-175.079	24.2593	-66.618	-192.351	46.2643	-15.039	-195.019	38.291	-38.5284	-193.444	30.4765	-54.9445	-209.119	39.0935	1.10209	-214.852	34.7744	-19.9664	-220.515	30.2961	-37.4525	-196.166	57.2978	27.0951	-199.186	62.2498	53.2236	-170.43	65.5695	39.4714	
4	0.0333333	-150.86	43.4052	53.8522	-134.451	33.4901	30.5881	-124.385	27.2498	12.0192	-119.25	19.8518	-7.57399	-151.47	48.7468	-13.9649	-148.796	39.4393	-35.8082	-143.172	22.0465	-53.7769	-173.929	47.5473	-24.4978	-173.498	35.9882	-47.9924	-174.633	23.0348	-65.9606	-198.346	41.3074	-14.1294	-195.365	35.0178	-40.0774	-196.727	24.0743	-58.6251	-216.164	34.839	-0.699193	-214.817	31.8941	-18.8396	-221.942	27.4091	-37.8699	-198.644	56.0736	27.3663	-195.026	60.9741	51.8369	-172.561	61.716	39.1529	
5	0.0416667	-151.898	43.5037	49.738	-137.233	33.219	31.4953	-129.032	27.2206	8.49727	-121.389	18.5853	-8.79951	-153.036	48.1182	-12.809	-153.72	35.6423	-39.0343	-146.5	20.7976	-53.5313	-180.195	45.3592	-23.1287	-177.113	37.1538	-45.8013	-180.219	20.4037	-66.1882	-201.175	40.6888	-13.9264	-200.911	33.3694	-39.2856	-201.075	24.3453	-55.5748	-216.48	35.6404	-0.252687	-217.844	31.3791	-16.4793	-224.768	24.1046	-35.872	-197.406	55.828	31.1451	-199.238	59.5264	53.9134	-171.266	61.7116	40.66	
6	0.05	-151.189	44.3063	50.352	-136.487	33.0816	30.7663	-131.956	25.5369	13.0186	-125.749	19.1042	-6.97403	-159.077	46.4927	-17.8844	-153.074	37.6561	-35.1417	-151.477	20.2565	-53.5134	-183.429	45.0923	-23.3303	-179.538	38.2246	-43.3773	-180.844	20.8683	-68.1386	-198.686	41.9846	-11.5688	-202.1	34.5409	-36.1448	-199.802	24.1927	-59.2198	-220.92	34.4536	0.713245	-223.826	28.7625	-20.5902	-227.702	23.4246	-36.9885	-198.131	53.8162	31.9932	-202.706	59.4508	55.9116	-176.777	63.174	41.9552	
7	0.0583333	-152.577	44.4199	54.4807	-138.388	32.6105	33.0763	-129.363	27.2661	8.37718	-123.429	19.3902	-8.41124	-159.017	48.0604	-17.3425	-153.138	35.5448	-39.5342	-153.402	21.3399	-54.7434	-182.653	45.9944	-23.627	-181.649	37.996	-44.5406	-178.338	19.8714	-70.1747	-199.749	42.93	-13.5299	-205.541	34.2776	-37.0385	-203.505	24.8092	-55.9932	-222.379	35.6944	-2.43395	-223.481	30.5258	-18.0069	-228.327	22.2367	-40.1125	-204.552	54.1046	31.2913	-203.425	59.5671	53.5963	-174.841	64.6492	40.7079	
8	0.0666667	-153.148	43.4208	49.7592	-139.896	32.6882	28.2244	-134.068	27.4395	8.0814	-127.311	20.5509	-14.0566	-158.679	49.5434	-16.6893	-153.993	36.8552	-42.1529	-147.459	19.2937	-58.9558	-181.693	48.3721	-22.2042	-183.439	37.4084	-49.5908	-180.335	22.2666	-69.9287	-201.59	43.8865	-17.1527	-204.451	36.2753	-38.9219	-199.416	25.6208	-60.6363	-221.513	36.4641	-0.293376	-223.01	31.8068	-19.2823	-228.816	24.5841	-40.3526	-201.725	54.5458	27.8873	-204.175	58.9522	54.8982	-176.495	62.2793	40.2483	
9	0.075	-153.305	44.5507	48.4488	-133.767	33.9642	25.9869	-126.709	29.1163	6.81213	-126.973	21.7032	-13.3359	-154.758	52.201	-20.3635	-153.825	42.6558	-41.411	-148.297	23.9415	-60.2482	-177.301	51.7929	-27.4887	-175.996	43.0559	-51.1863	-175.637	25.921	-71.6198	-195.675	47.6294	-21.8234	-202.16	40.057	-41.0699	-197.384	28.4715	-62.243	-214.524	39.7342	-4.31472	-221.729	32.8943	-25.3899	-223.743	27.2497	-43.4983	-202.358	56.891	25.4497	-201.692	61.1446	48.0674	-173.528	64.5287	38.6259	
10	0.0833333	-147.679	46.8907	43.7971	-132.384	35.7848	23.603	-125.346	30.2685	1.59901	-121.127	23.3997	-19.7272	-153.106	54.791	-23.9527	-146.51	44.0404	-44.508	-144.253	20.0258	-60.1815	-174.186	54.9261	-31.7754	-171.814	46.4735	-52.8822	-173.398	28.289	-74.1616	-197.557	48.6865	-22.6792	-196.693	43.1615	-44.943	-191.11	31.8569	-67.3255	-210.862	42.0102	-8.33739	-217.011	36.9407	-29.0682	-218.995	30.6887	-47.0046	-198.866	58.5836	23.0753	-197.766	60.9246	44.5816	-172.514	66.7534	35.148	
11	0.0916667	-148.69	44.597	44.0875	-127.152	34.6424	23.2179	-120.499	30.0076	1.00357	-121.117	23.6678	-19.4242	-147.805	55.8278	-25.8581	-142.19	39.7251	-46.6909	-141.014	16.3756	-52.5196	-170.333	57.2339	-30.4831	-169.123	48.0832	-57.09	-165.496	28.2406	-78.7583	-192.342	50.8612	-23.1056	-189.085	46.0924	-46.7602	-188.67	35.9164	-66.9833	-207.422	44.5763	-16.1823	-211.05	40.1167	-30.122	-217.589	33.7242	-51.6322	-195.87	60.7247	19.2334	-197.941	61.3182	44.4899	-166.61	65.3142	32.2769	
12	0.1	-146.801	46.9695	38.6333	-131.193	34.3399	20.2778	-118.218	28.5787	-0.0473429	-114.681	22.6844	-21.0996	-143.558	55.1683	-27.8623	-136.919	35.7093	-44.1138	-138.107	10.4354	-40.7797	-165.211	59.1914	-33.5174	-164.397	49.1799	-59.3476	-162.784	33.355	-77.9431	-191.056	53.8081	-26.3187	-184.38	49.6689	-51.5023	-183.746	40.4255	-70.48	-207.641	45.4715	-12.9468	-210.113	43.6789	-31.0941	-213.581	41.5492	-54.9887	-189.235	60.2591	16.5915	-193.817	61.1129	45.3133	-167.274	65.4211	33.2891	
13	0.108333	-144.242	46.8286	41.1687	-125.297	34.948	19.0611	-116.372	29.3501	-2.02724	-113.369	20.8572	-22.3674	-145.786	55.7834	-26.4963	-138.308	34.1533	-42.385	-140.593	5.75339	-26.8178	-164.368	62.0623	-36.8514	-159.823	52.4493	-60.1374	-157.396	37.3935	-78.7725	-186.226	59.1533	-29.3384	-184.837	56.1578	-49.3398	-181.304	49.8617	-70.7431	-203.529	52.2604	-18.6456	-209.807	49.6507	-37.5244	-211.368	51.6137	-55.1105	-188.669	62.4439	14.8278	-192.546	65.652	41.0606	-166.4	70.1054	33.9341	
